<?xml version="1.0" encoding="UTF-8"?>
<!-- Generator: visioncortex VTracer 0.6.3 -->
<svg version="1.1" xmlns="http://www.w3.org/2000/svg" width="882" height="1280">
<path d="M0 0 C14.52 0 29.04 0 44 0 C45.98 8.42 45.98 8.42 48 17 C50.71 19.73 50.71 19.73 53.5 22.38 C55 24 55 24 56.75 26.81 C59 30 61.22 32 64.2 34.43 C66.61 36.54 68.56 38.94 70.6 41.41 C72.51 43.58 74.71 45.24 77 47 C78.21 48.27 78.21 48.27 79.44 49.56 C81.87 52.13 81.87 52.13 85 53.44 C88 55 88 55 90.06 57.94 C93.24 62.15 98.02 62.74 102.89 64.07 C107.23 65.37 110.33 67.14 113.38 70.54 C115.33 72.29 116.73 72.67 119.27 73.25 C120.1 73.44 120.92 73.64 121.77 73.85 C123.5 74.24 125.23 74.63 126.95 75.02 C131.83 76.19 135.4 77.27 139 81 C139 81.66 139 82.32 139 83 C139.66 83.07 140.32 83.14 141 83.21 C169.87 86.35 169.87 86.35 179.75 92.12 C188.61 96.83 201 96.04 210.81 96.44 C225.77 97.07 240.19 99.53 254.67 103.29 C266.51 106.31 278.34 106.15 290.48 106.16 C292.36 106.16 294.25 106.17 296.13 106.17 C301.3 106.19 306.46 106.19 311.63 106.2 C317.2 106.21 322.78 106.22 328.36 106.24 C338.01 106.26 347.67 106.28 357.32 106.29 C371.28 106.31 385.24 106.34 399.2 106.37 C421.85 106.42 444.5 106.46 467.15 106.5 C489.15 106.54 511.15 106.58 533.15 106.63 C534.17 106.63 534.17 106.63 535.21 106.63 C542.02 106.65 548.84 106.66 555.65 106.67 C612.77 106.79 669.88 106.9 727 107 C727 135.05 727 163.1 727 192 C725.02 192 723.04 192 721 192 C720.42 197.64 719.95 203.26 719.79 208.94 C719.76 209.94 719.73 210.93 719.7 211.96 C719.65 213.99 719.61 216.01 719.57 218.04 C719.33 225.86 719.04 234.35 713.85 240.57 C703.09 249.72 677.33 245.44 663.49 245.57 C659.52 245.61 655.55 245.67 651.58 245.72 C644.07 245.81 636.55 245.9 629.04 245.98 C615.61 246.13 602.17 246.28 588.73 246.45 C584.03 246.51 579.33 246.56 574.63 246.61 C571.69 246.64 568.75 246.68 565.81 246.71 C563.84 246.73 561.86 246.75 559.88 246.77 C551.22 246.88 542.63 247.35 534 248 C532.09 255.23 531.71 261.9 531.74 269.36 C531.74 270.56 531.73 271.77 531.73 273.01 C531.72 276.29 531.72 279.57 531.73 282.85 C531.74 286.29 531.73 289.74 531.73 293.18 C531.72 298.95 531.73 304.72 531.74 310.49 C531.75 317.16 531.75 323.84 531.74 330.51 C531.73 336.25 531.73 341.99 531.73 347.72 C531.73 351.15 531.73 354.57 531.73 357.99 C531.72 361.8 531.73 365.61 531.74 369.42 C531.74 371.12 531.74 371.12 531.73 372.86 C531.73 373.89 531.74 374.93 531.75 375.99 C531.75 376.89 531.75 377.79 531.75 378.72 C531.85 381.28 531.85 381.28 534 384 C536.73 384.78 536.73 384.78 539.98 385.13 C541.81 385.38 541.81 385.38 543.68 385.64 C544.98 385.8 546.28 385.96 547.62 386.12 C548.96 386.3 550.29 386.48 551.62 386.65 C559.63 387.68 567.57 388.47 575.64 388.63 C578.53 388.95 580.39 389.46 583.05 390.46 C589.21 392.65 595.52 392.7 602 393 C621.14 393.89 621.14 393.89 627.56 399.06 C631.25 406.6 628.51 416.45 627.12 424.38 C626.95 425.44 626.78 426.51 626.6 427.61 C625.26 435.5 625.26 435.5 624 437.94 C619.54 447.11 620.63 460.25 620.44 470.31 C619.9 495.42 619.9 495.42 616 500 C613.48 501.33 613.48 501.33 610.62 502.25 C609.69 502.56 608.75 502.88 607.79 503.2 C600.12 505.39 600.12 505.39 595.62 503.62 C588.22 500.74 580.37 500.72 572.52 500.36 C571.43 500.31 570.34 500.26 569.22 500.21 C566.92 500.1 564.62 500 562.33 499.91 C559.98 499.8 557.63 499.69 555.28 499.57 C551.88 499.4 548.48 499.25 545.08 499.11 C543.51 499.03 543.51 499.03 541.9 498.94 C540.43 498.88 540.43 498.88 538.93 498.83 C538.07 498.79 537.22 498.75 536.33 498.71 C533.44 499.07 532.12 500.04 530 502 C529.21 503.86 529.21 503.86 528.99 505.96 C528.87 506.73 528.75 507.51 528.63 508.31 C528.53 509.14 528.42 509.96 528.31 510.81 C528.13 512.09 528.13 512.09 527.94 513.38 C527.09 519.52 526.59 525.63 526.41 531.82 C526 535 526 535 524.52 538.69 C522.9 542.9 522.46 546.7 522.3 551.19 C522.27 551.96 522.23 552.72 522.19 553.51 C522.07 556.01 521.97 558.5 521.88 561 C521.8 562.75 521.72 564.49 521.63 566.24 C521.08 578.51 520.7 590.78 520.41 603.06 C520.17 611.71 519.57 620.25 518.31 628.81 C517.69 633.29 517.69 633.29 519.59 637.21 C522.76 639.56 524.67 639.49 528.6 639.47 C529.58 639.47 529.58 639.47 530.58 639.47 C532 639.48 533.42 639.47 534.83 639.46 C537.08 639.43 539.32 639.44 541.57 639.45 C547.15 639.47 552.72 639.45 558.3 639.43 C563.01 639.4 567.72 639.4 572.44 639.43 C574.64 639.43 576.85 639.41 579.06 639.38 C590.12 639.37 590.12 639.37 593.83 642.29 C599.95 649.95 599.23 659.07 598.7 668.45 C598.65 669.32 598.61 670.18 598.56 671.07 C598.42 673.8 598.27 676.52 598.12 679.25 C598.03 681.06 597.94 682.87 597.85 684.68 C597.59 689.79 597.3 694.9 597 700 C596.96 700.69 596.92 701.39 596.88 702.1 C596.45 709.7 595.68 717.05 594.12 724.5 C593.96 725.34 593.8 726.18 593.64 727.05 C592.89 730.73 592.13 733.75 590.43 737.12 C588.69 740.63 588.38 743.62 588 747.5 C587.43 753.38 586.74 758.51 582.18 762.65 C579.67 764.21 578.35 764.36 575.42 764.33 C574.52 764.32 573.62 764.32 572.69 764.32 C571.72 764.29 570.75 764.27 569.75 764.25 C568.73 764.24 567.7 764.22 566.65 764.21 C563.43 764.16 560.22 764.08 557 764 C556.03 763.98 555.07 763.97 554.07 763.95 C536.52 763.66 519.35 761.47 502 759 C500.2 762.4 498.68 765.34 498.23 769.17 C498.13 769.91 498.03 770.66 497.92 771.42 C497.83 772.19 497.73 772.96 497.62 773.75 C496.71 780.04 495.44 785.01 492.2 790.55 C488.5 798.09 488.62 807.51 488.06 815.75 C486.15 840.51 486.15 840.51 480.13 848.96 C476.92 854.74 477.16 862.27 476.55 868.75 C476.43 869.99 476.43 869.99 476.3 871.25 C476.15 872.87 476 874.49 475.87 876.11 C475.25 882.84 473.98 889.29 469.94 894.81 C466.42 900.6 466.27 907.38 465.58 914.02 C463.83 930.44 463.83 930.44 458.49 936.8 C456.78 939.32 456.42 941.06 456.01 944.07 C455.86 945.05 455.71 946.03 455.56 947.04 C455.27 949.07 454.99 951.11 454.71 953.14 C453.44 961.47 450.66 968.01 446 975 C445.45 977.05 445.45 977.05 445.11 979.32 C444.96 980.16 444.81 981 444.66 981.87 C444.5 982.76 444.35 983.65 444.19 984.56 C442.97 991.14 441.69 997 438.25 1002.83 C435.2 1008.13 433.54 1013.51 432.19 1019.44 C431.11 1023.84 430.06 1027.48 427 1030.94 C423.37 1035.07 422.5 1039.93 421.47 1045.19 C420.26 1051.04 417.88 1054.95 413.88 1059.31 C411.71 1062.42 411.2 1064.86 410.48 1068.52 C409.97 1071.15 409.37 1073.73 408.69 1076.31 C408.49 1077.11 408.28 1077.91 408.07 1078.74 C407 1081 407 1081 404.55 1082.83 C401.3 1085.59 400.51 1088.46 399.44 1092.44 C397.82 1098.25 395.85 1102.41 391.32 1106.53 C389.6 1108.45 389.35 1110.05 388.81 1112.56 C387.33 1117.99 384.56 1121.33 380.93 1125.54 C378.58 1128.54 377.21 1131.54 375.89 1135.09 C374.87 1137.29 373.89 1138.49 372 1140 C369.81 1140.69 369.81 1140.69 368 1141 C367.9 1141.64 367.8 1142.28 367.7 1142.94 C366.69 1148.78 365.46 1153.16 362 1158 C361.19 1158.44 360.39 1158.89 359.55 1159.34 C356.42 1161.38 355.54 1163.22 353.94 1166.56 C352.01 1170.59 350.99 1172.13 347 1174 C345.85 1175.83 345.85 1175.83 345.06 1177.94 C343.35 1181.64 341.89 1183.4 338 1185 C337.01 1185 336.02 1185 335 1185 C334.79 1186.05 334.59 1187.1 334.38 1188.19 C333.11 1192.68 330.82 1194.43 327 1197 C326.01 1197 325.02 1197 324 1197 C323.94 1197.72 323.88 1198.44 323.81 1199.19 C322.73 1202.95 321.01 1204.54 318 1207 C315.19 1207.81 315.19 1207.81 313 1208 C312.92 1208.74 312.83 1209.48 312.75 1210.25 C311.82 1213.64 310.76 1214.84 308 1217 C306.99 1217.29 305.98 1217.58 304.94 1217.88 C301.01 1219.38 300.68 1221.26 299 1225 C296.86 1226.99 295.28 1227.91 292.5 1228.81 C289.75 1229.83 289.75 1229.83 288.38 1232.75 C285.9 1236.93 281.82 1238.42 277.62 1240.55 C274.52 1242.27 272.42 1244.44 270 1247 C265.76 1249.6 261.81 1250.56 256.95 1251.28 C254.82 1251.83 254.82 1251.83 253.88 1253.94 C253.45 1254.96 253.45 1254.96 253 1256 C248.49 1259.91 244.12 1260.82 238.29 1261.8 C234.98 1263.01 233.53 1264.17 230.92 1266.45 C225.43 1270.93 219.95 1271.62 213.06 1272.44 C211.93 1272.6 210.79 1272.76 209.62 1272.92 C201.78 1274 201.78 1274 199 1274 C199 1275.98 199 1277.96 199 1280 C156.1 1280 113.2 1280 69 1280 C69 1278.02 69 1276.04 69 1274 C67.88 1273.88 66.75 1273.76 65.6 1273.63 C61.06 1273.13 56.53 1272.57 52 1272 C51.08 1271.89 50.16 1271.78 49.22 1271.67 C43.64 1270.75 40.27 1268.11 35.81 1264.73 C32.55 1262.72 29.59 1261.91 25.88 1261 C20.16 1259.56 17.15 1257.87 13.07 1253.73 C10.49 1251.57 7.95 1250.62 4.81 1249.44 C-1.45 1247.05 -1.45 1247.05 -3.75 1243.94 C-5.99 1241.01 -6.92 1240.37 -10.12 1238.94 C-13.76 1237.3 -15.41 1235.78 -17 1232 C-17 1231.34 -17 1230.68 -17 1230 C-17.8 1229.98 -18.61 1229.96 -19.44 1229.94 C-24.53 1228.6 -28.23 1225.63 -32 1222 C-32.5 1220.51 -32.5 1220.51 -33 1219 C-33.96 1218.54 -33.96 1218.54 -34.94 1218.06 C-37.5 1216.74 -37.74 1215.52 -39 1213 C-40.33 1212.32 -41.66 1211.65 -43 1211 C-43.5 1209.51 -43.5 1209.51 -44 1208 C-44.96 1207.54 -44.96 1207.54 -45.94 1207.06 C-48.5 1205.74 -48.74 1204.52 -50 1202 C-50.61 1201.72 -51.23 1201.44 -51.86 1201.14 C-54.52 1199.72 -55.55 1198.2 -57.19 1195.69 C-57.95 1194.55 -57.95 1194.55 -58.73 1193.39 C-60.05 1190.9 -60.59 1188.78 -61 1186 C-61.93 1185.77 -62.86 1185.55 -63.81 1185.31 C-67.6 1183.75 -68.3 1182.65 -70 1179 C-70.27 1178.15 -70.54 1177.31 -70.81 1176.44 C-71.85 1173.74 -71.85 1173.74 -74.81 1172.31 C-78.75 1169.46 -79.75 1166.73 -81.71 1162.39 C-82.99 1160.02 -83.99 1158.89 -86.12 1157.31 C-90.84 1153.52 -91.86 1148.93 -92.88 1143.19 C-93.28 1140.91 -93.28 1140.91 -94 1139 C-96.39 1137.89 -96.39 1137.89 -99 1137 C-101.75 1133.13 -103.12 1128.7 -104.44 1124.19 C-105.74 1120 -107.2 1119.18 -111 1117 C-112.67 1113.41 -113.75 1110.05 -114.67 1106.21 C-116.14 1100.17 -117.43 1097.34 -122 1093 C-124.85 1087.07 -125.84 1080.33 -127.06 1073.92 C-128.14 1070.56 -129.52 1069.43 -132 1067 C-135.89 1059.92 -136.31 1052.07 -137.29 1044.16 C-138.26 1037.25 -139.64 1033.42 -144 1028 C-146.05 1023.09 -146.49 1018.37 -146.85 1013.13 C-146.92 1012.29 -146.98 1011.45 -147.04 1010.58 C-147.18 1008.81 -147.31 1007.04 -147.43 1005.27 C-147.62 1002.57 -147.83 999.88 -148.03 997.19 C-148.16 995.46 -148.29 993.73 -148.41 992 C-148.47 991.21 -148.53 990.41 -148.59 989.59 C-148.91 985.04 -149.06 980.55 -149 976 C-150.98 976 -152.96 976 -155 976 C-155 935.08 -155 894.16 -155 852 C-153.02 852 -151.04 852 -149 852 C-148.95 851.1 -148.9 850.21 -148.85 849.28 C-148.66 845.89 -148.46 842.49 -148.26 839.1 C-148.17 837.64 -148.09 836.18 -148.01 834.73 C-146.32 804.52 -146.32 804.52 -140 798 C-139.34 798 -138.68 798 -138 798 C-137.96 797.43 -137.92 796.86 -137.88 796.28 C-135.85 768.49 -135.85 768.49 -129.99 761.65 C-127.1 757.8 -126.54 753.6 -125.67 748.97 C-124.53 743.71 -122.89 740.78 -119 737 C-116.13 735.43 -116.13 735.43 -113.12 734.31 C-111.55 733.71 -111.55 733.71 -109.94 733.1 C-108.97 732.74 -108 732.37 -107 732 C-105.68 731.43 -104.37 730.84 -103.06 730.25 C-97.97 728.17 -92.97 727.77 -87.52 727.46 C-86.43 727.4 -86.43 727.4 -85.32 727.33 C-82.96 727.2 -80.61 727.07 -78.25 726.94 C-77.45 726.89 -76.65 726.85 -75.82 726.8 C-65.47 726.25 -55.12 725.78 -44.75 725.69 C-43.77 725.67 -42.78 725.65 -41.77 725.63 C-35.14 725.64 -29.21 726.22 -23.99 730.74 C-22.56 734.02 -22.88 736.58 -23.19 740.12 C-23.27 741.12 -23.27 741.12 -23.36 742.14 C-24.6 755.54 -24.6 755.54 -27 759.77 C-29.54 765.44 -29.23 772.67 -29.53 778.83 C-29.57 779.65 -29.61 780.48 -29.65 781.33 C-30.08 790.13 -30.35 798.94 -30.55 807.75 C-30.59 809.04 -30.59 809.04 -30.62 810.37 C-31.1 830.58 -31.15 850.79 -31.13 871 C-31.12 876 -31.13 881 -31.13 885.99 C-31.15 906.23 -31.03 926.45 -30.53 946.68 C-30.51 947.53 -30.49 948.37 -30.47 949.25 C-30.24 975.71 -30.24 975.71 -21 1000 C-19.94 1002.31 -18.97 1004.64 -18 1007 C-16.29 1005.29 -16.67 1002.98 -16.5 1000.63 C-16.42 999.51 -16.34 998.38 -16.25 997.23 C-16.17 996.02 -16.09 994.81 -16 993.56 C-15.91 992.33 -15.82 991.1 -15.73 989.84 C-15.34 984.48 -14.98 979.13 -14.79 973.77 C-13.94 950.04 -13.94 950.04 -8.5 943.08 C-4.11 936.99 -4.66 927.5 -4.19 920.25 C-2.6 899.6 -2.6 899.6 4 893 C4.66 890.65 4.66 890.65 5.11 887.91 C5.31 886.88 5.51 885.84 5.71 884.78 C6.11 882.63 6.5 880.47 6.88 878.31 C8.25 871.2 10.4 865.3 14 859 C14.66 859 15.32 859 16 859 C16.15 857.82 16.15 857.82 16.3 856.61 C19.1 836.2 19.1 836.2 25.81 828.63 C28.33 825.19 29.01 820.91 30.03 816.83 C31.68 810.83 34.45 807.59 39.81 804.25 C46.09 801.79 52.45 801.86 59.09 802.27 C59.84 802.31 60.59 802.35 61.37 802.39 C62.95 802.48 64.53 802.57 66.11 802.67 C68.47 802.81 70.83 802.94 73.19 803.06 C109.8 805.11 109.8 805.11 117.12 812.75 C119.49 816.85 120 819.27 120 824 C118.69 826 118.69 826 117 827 C116.34 827 115.68 827 115 827 C114.88 827.8 114.76 828.59 114.64 829.41 C114.07 833.07 113.47 836.72 112.88 840.38 C112.69 841.63 112.5 842.88 112.3 844.17 C111.1 851.33 109.55 856.81 105.34 862.78 C101.53 869.09 101.97 877.35 101.69 884.5 C101.34 892.63 100.04 900.55 98.62 908.56 C98.31 910.36 98.31 910.36 97.99 912.2 C97.1 917.06 96.24 921.75 94.4 926.34 C91.92 932.83 91.85 939.47 91.87 946.34 C91.87 947.13 91.87 947.92 91.87 948.74 C91.86 951.33 91.86 953.92 91.87 956.52 C91.87 958.34 91.87 960.16 91.86 961.98 C91.86 965.79 91.86 969.6 91.87 973.41 C91.88 978.26 91.87 983.11 91.87 987.96 C91.86 991.72 91.86 995.48 91.87 999.24 C91.87 1001.03 91.87 1002.82 91.86 1004.6 C91.05 1022.38 91.05 1022.38 96.01 1038.91 C98.06 1043.24 98.45 1048.05 99.12 1052.75 C99.29 1053.84 99.46 1054.93 99.63 1056.05 C100.79 1063.92 101.7 1071.79 102.32 1079.72 C102.78 1085.28 103.18 1089.34 107.49 1093.29 C110.76 1096.82 111.28 1099.81 112.12 1104.44 C113.94 1114.03 113.94 1114.03 120 1121.44 C123 1124 123 1124 124.38 1127.5 C126.31 1131.67 128.05 1132.61 132.06 1134.57 C134 1136 134 1136 135.13 1138.98 C137.24 1142.39 137.75 1142.56 141.43 1143.57 C143.24 1143.97 145.05 1144.34 146.88 1144.69 C148.8 1145.08 150.73 1145.48 152.66 1145.88 C153.59 1146.06 154.52 1146.25 155.47 1146.44 C158.52 1147.12 161.42 1148.13 164.38 1149.12 C174.07 1151.41 184.63 1147.55 194 1145 C194.95 1144.75 195.9 1144.51 196.88 1144.25 C197.78 1144.01 198.68 1143.76 199.61 1143.5 C200.82 1143.18 200.82 1143.18 202.05 1142.84 C205.12 1141.51 205.67 1138.95 207 1136 C208.8 1135 208.8 1135 210.94 1134.12 C215.26 1132.26 216.3 1130.07 218.07 1125.84 C219.44 1123.14 221.27 1122.15 224 1121 C224.66 1121 225.32 1121 226 1121 C226.12 1120.39 226.25 1119.79 226.38 1119.16 C227.68 1113.85 229.3 1110.31 232.94 1106.19 C237.04 1101.44 238.37 1097.1 239.93 1091.1 C241.06 1087.83 242.38 1085.92 244.62 1083.31 C248.53 1078.76 249.14 1074.8 250 1069 C251.47 1062.34 252.62 1059.28 258 1055 C259.56 1050.06 260.08 1045.25 260.64 1040.11 C262.42 1024.08 262.42 1024.08 267.5 1019.71 C272.55 1013.94 272 1003.29 272.77 996.07 C274.7 979.16 274.7 979.16 280 974 C282.38 966.98 282.49 959.85 282.88 952.5 C284.5 926.19 284.5 926.19 289.5 920.21 C294.7 912.56 293.36 898.59 293.72 889.47 C295.48 847.52 295.48 847.52 302 841 C304.68 828.92 304.56 816.19 305 803.88 C305.72 783.9 306.64 764.24 311.14 744.71 C314.71 728.31 315.25 711.61 315.42 694.88 C315.63 675.1 315.89 655.32 316.48 635.54 C317.95 584.8 318.36 534.09 318.32 483.34 C318.31 477.99 318.31 472.65 318.31 467.31 C318.31 412.94 318.03 358.6 316.56 304.25 C316.53 303 316.5 301.74 316.46 300.45 C316.24 292.37 316.01 284.29 315.75 276.2 C315.72 275.21 315.69 274.21 315.66 273.18 C315.57 270.42 315.48 267.67 315.39 264.91 C315.36 264.13 315.34 263.35 315.31 262.55 C315.13 257.32 314.63 252.19 314 247 C312.82 246.97 311.64 246.95 310.42 246.92 C261.09 245.87 261.09 245.87 248 245 C247.25 244.95 246.51 244.91 245.74 244.86 C243.61 244.71 241.5 244.52 239.38 244.31 C238.25 244.21 237.12 244.1 235.96 243.99 C232.3 243.33 229.32 241.7 226.02 240.02 C218.58 236.47 211.5 235.82 203.38 235.38 C192.81 234.74 182.87 234.1 173.96 227.87 C169.08 224.78 163.6 224.49 157.96 223.67 C150.15 222.38 144.53 219.35 138 215 C134.67 214.18 131.34 213.43 127.98 212.76 C122.99 211.64 120.36 210.07 117 206 C116.67 205.34 116.34 204.68 116 204 C112.71 203.14 109.42 202.42 106.08 201.76 C101.04 200.65 98.38 199.11 95 195 C94.67 194.34 94.34 193.68 94 193 C92.61 192.37 91.18 191.79 89.75 191.25 C85.88 189.61 84.1 188.08 81.64 184.63 C79.27 182.28 76.54 181.1 73.56 179.62 C68.33 176.97 65.39 174.67 62.26 169.77 C60.38 167.12 57.69 165.78 55 164 C53.66 162.27 52.48 160.47 51.27 158.64 C49.95 156.74 49.95 156.74 47.12 155.25 C43.12 152.37 41.32 149.01 38.8 144.82 C36.66 141.47 34.21 138.64 31.48 135.75 C28.64 132.39 28 130.48 28 126 C27.26 125.77 26.51 125.55 25.75 125.31 C22.21 123.62 21.09 122.37 19 119 C18.34 117.05 17.72 115.09 17.12 113.12 C15.92 109.24 14.96 106.54 12.06 103.69 C8.38 99.95 7.35 95.37 5.9 90.48 C4.44 85.8 2.68 82.96 -0.71 79.52 C-3.61 76.1 -3.83 71.4 -4.34 67.11 C-5.16 60.84 -6.09 56.81 -10.56 52.21 C-14.37 46.37 -14.45 38.22 -15.12 31.44 C-15.25 30.24 -15.25 30.24 -15.39 29.02 C-16.71 16.13 -16.71 16.13 -15.06 11.19 C-11.99 7.92 -8.33 6.92 -4 6 C-2.68 6 -1.36 6 0 6 C0 4.02 0 2.04 0 0 Z " fill="#000000" transform="translate(155,0)"/>
</svg>
